Coordinates
version=1
nRows=13
nColumns=36
inDegrees=yes

Units are S.I. units (second, meters, Newtons, ...)
If the header above contains a line with 'inDegrees', this indicates whether rotational values are in degrees (yes) or radians (no).

endheader
time	pelvis_tilt	pelvis_list	pelvis_rotation	pelvis_tx	pelvis_ty	pelvis_tz	hip_flexion_r	hip_adduction_r	hip_rotation_r	knee_angle_r	knee_angle_r_beta	ankle_angle_r	subtalar_angle_r	mtp_angle_r	hip_flexion_l	hip_adduction_l	hip_rotation_l	knee_angle_l	knee_angle_l_beta	ankle_angle_l	subtalar_angle_l	mtp_angle_l	lumbar_extension	lumbar_bending	lumbar_rotation	arm_flex_r	arm_add_r	arm_rot_r	elbow_flex_r	pro_sup_r	arm_flex_l	arm_add_l	arm_rot_l	elbow_flex_l	pro_sup_l
      3.12916670	    -11.56975241	      1.54148223	      2.53965337	      0.42850954	      1.43249151	     -0.05104442	      4.58978451	    -13.32968137	    -25.80789270	      3.43547126	      0.05996028	    -30.89487385	     -0.66851235	     -7.49999987	      7.57229788	     -8.07487193	    -18.90781201	      9.75243189	      0.17021205	    -27.41147565	     -5.97882854	     -7.49999987	      3.08210533	      0.27067856	      1.42205458	    135.94191403	    -18.63296635	     36.71027602	     87.13910106	     89.13033142	    137.73738648	    -26.35586834	     40.93395469	     92.42083278	     83.97237402
      3.13333330	    -11.62907576	      1.73511453	      2.56211119	      0.42893493	      1.43026865	     -0.05101034	      4.65978576	    -13.71678317	    -25.90818839	      3.69106863	      0.06442130	    -30.77814182	     -0.94020359	     -7.49999987	      7.68342886	     -7.82093090	    -19.12140270	      9.77034525	      0.17052469	    -27.49943742	     -6.29575898	     -7.49999987	      3.14853218	      0.12073671	      1.51653601	    136.46345563	    -18.23002404	     36.88196010	     85.79880828	     93.72867177	    137.84047040	    -26.26696113	     40.75965160	     91.68520506	     88.32104975
      3.13750000	    -11.68247817	      1.94128279	      2.51372307	      0.42929594	      1.43725719	     -0.04863500	      4.67740496	    -13.90837366	    -25.92970148	      3.68714927	      0.06435289	    -30.67100511	     -0.94853672	     -7.49999987	      7.84756894	     -7.64125665	    -19.15205126	      9.93661922	      0.17342672	    -27.35759480	     -6.33503568	     -7.49999987	      3.14261416	     -0.13567656	      1.65310527	    136.34025706	    -18.28339293	     36.95080944	     85.66431975	     93.69593736	    137.83989629	    -26.38946967	     40.79870370	     91.66212264	     88.30111275
      3.14166670	    -11.88721751	      1.95010047	      2.43427783	      0.42893715	      1.43899304	     -0.04861614	      5.03091070	    -13.98678494	    -25.99920899	      3.95337617	      0.06899943	    -31.03278267	     -1.08519839	     -7.49999987	      8.26813564	     -7.75217883	    -19.31669935	     10.11894670	      0.17660894	    -26.69476305	     -6.25678468	     -7.49999987	      3.56843207	     -0.22330907	      1.76196452	    135.92392534	    -18.40254648	     37.25837759	     85.16724717	     92.56726526	    137.46690620	    -26.35002439	     41.33184877	     91.54517847	     87.23987725
      3.14583330	    -12.05547759	      2.03921342	      2.34149678	      0.42902144	      1.44122537	     -0.04905682	      5.31586951	    -14.16944158	    -25.88397600	      4.06588204	      0.07096303	    -31.51062546	     -1.12310174	     -7.49999987	      8.56241879	     -7.76282097	    -19.25158703	     10.17197907	      0.17753453	    -26.57201998	     -6.14442903	     -7.49999987	      3.78013591	     -0.38143408	      1.80995327	    135.79498694	    -18.52407337	     37.43793842	     85.00204802	     91.67271425	    137.43727005	    -26.45435620	     41.69502837	     91.66759394	     86.43885530
      3.15000000	    -12.23098988	      2.11051511	      2.24950972	      0.42999771	      1.44390077	     -0.04991806	      5.61705216	    -14.34843367	    -25.52208409	      4.12309435	      0.07196157	    -31.91165193	     -0.80548329	     -7.49999987	      8.81408381	     -7.74281998	    -19.29630713	     10.14359905	      0.17703920	    -26.38931124	     -6.11056615	     -7.49999987	      4.05744900	     -0.46616472	      1.85823432	    135.56861345	    -18.46586174	     37.62552253	     84.71258928	     90.61794913	    137.33338327	    -26.52510101	     41.94926518	     91.50447560	     85.50180146
      3.15416670	    -12.15247242	      2.13514036	      2.32369993	      0.43048693	      1.45008033	     -0.04835201	      5.44427127	    -14.35379557	    -25.22424559	      4.02984974	      0.07033415	    -31.97795563	     -0.20282352	     -7.49999987	      8.68124201	     -7.75929718	    -19.26223535	      9.75238157	      0.17021117	    -26.48063531	     -5.79426226	     -7.49999987	      3.86167928	     -0.54859987	      1.40534011	    135.36108121	    -18.27841560	     37.54640804	     84.81404050	     91.88637274	    137.71343458	    -27.17927650	     42.72167574	     92.09326368	     87.15144624
      3.15833330	    -12.17565117	      1.95006765	      2.34360872	      0.42989500	      1.45140056	     -0.04913174	      5.59228693	    -14.09784661	    -25.12696586	      4.12923369	      0.07206872	    -32.27480698	     -0.42362655	     -7.49999987	      8.71812208	     -7.89487620	    -19.05443834	      9.58822739	      0.16734614	    -25.85848621	     -5.37645259	     -7.49999987	      3.95951719	     -0.36734407	      1.55112345	    135.11745752	    -18.44531957	     37.53652269	     84.74401160	     91.07501375	    137.32737081	    -26.97931040	     43.00832265	     92.20165680	     86.40388702
      3.16250000	    -12.10254626	      1.89559671	      2.34673220	      0.43003179	      1.45389985	     -0.05007503	      5.58994175	    -14.05484307	    -24.82203951	      4.13884996	      0.07223656	    -32.56103300	     -0.49400005	     -7.49999987	      8.61337056	     -7.89464275	    -18.86774790	      9.50140858	      0.16583086	    -25.06493179	     -5.01419995	     -7.49999987	      3.87556325	     -0.27257109	      1.70828160	    134.87521697	    -18.59838817	     37.52835274	     84.86112766	     90.34575809	    137.11364710	    -26.96746621	     43.25556351	     92.37701049	     85.73108644
      3.16666670	    -11.98388755	      1.85554561	      2.32766610	      0.43114896	      1.45409631	     -0.04906233	      5.54936846	    -14.02743534	    -24.43241538	      4.15075985	      0.07244443	    -33.00728974	     -0.47633024	     -7.49999987	      8.44971565	     -7.98755181	    -18.44111942	      9.44877681	      0.16491227	    -24.93766457	     -4.71407779	     -7.49999987	      3.70191587	     -0.25014838	      1.70908542	    134.88508974	    -18.55744664	     37.52997602	     84.73165780	     88.20133932	    137.16239764	    -26.86971743	     43.44646192	     92.37936312	     83.83432860
      3.17083330	    -11.94110762	      1.93912410	      2.45711855	      0.43090932	      1.45428309	     -0.04818046	      5.54768558	    -14.07363820	    -24.01635145	      4.11504827	      0.07182114	    -32.93391847	     -0.50703069	     -7.49999987	      8.49209021	     -7.93027548	    -18.27376609	      9.64659271	      0.16836480	    -24.88076631	     -4.84036433	     -7.49999987	      3.70813925	     -0.49171737	      1.19304097	    134.41437187	    -18.00409439	     36.29085165	     84.15600009	     92.65502095	    137.76243931	    -27.09779153	     44.20986884	     91.99909503	     87.68473765
      3.17500000	    -11.92583139	      1.85537603	      2.42298633	      0.43090951	      1.45643999	     -0.04749894	      5.62728312	    -13.97526362	    -23.43221247	      4.21076951	      0.07349179	    -33.07109965	     -0.71111469	     -7.49999987	      8.57760740	     -8.08236776	    -17.82043316	      9.89225981	      0.17265250	    -24.53592807	     -4.62919677	     -7.49999987	      3.81606941	     -0.51067210	      1.15637323	    134.08105742	    -18.06484870	     36.32348814	     83.86677152	     91.06437461	    137.47043742	    -26.87229864	     44.18159779	     91.70057994	     86.26183048
      3.17916670	    -11.85857772	      1.92749721	      2.25407647	      0.42987720	      1.45671406	     -0.04902514	      5.78767869	    -14.07167331	    -23.31020268	      4.32366819	      0.07546225	    -33.00477006	     -0.77439594	     -7.49999987	      8.62765197	     -7.96951194	    -17.55564955	      9.94778955	      0.17362168	    -24.45346715	     -4.58250569	     -7.49999987	      3.67519819	     -0.56951444	      1.31097531	    133.89994080	    -18.21325952	     36.24825867	     83.71644048	     90.58390932	    137.43403904	    -26.84801255	     44.29262904	     91.79448195	     85.82706530
